<svg xmlns="http://www.w3.org/2000/svg" xmlns:xlink="http://www.w3.org/1999/xlink" width="1024" zoomAndPan="magnify" viewBox="0 0 768 767.999994" height="1024" preserveAspectRatio="xMidYMid meet" version="1.0"><defs><g/><clipPath id="373530d1f6"><path d="M 85.859375 301.21875 L 342.359375 301.21875 L 342.359375 475 L 85.859375 475 Z M 85.859375 301.21875 " clip-rule="nonzero"/></clipPath></defs><rect x="-76.8" width="921.6" fill="#ffffff" y="-76.799999" height="921.599993" fill-opacity="1"/><rect x="-76.8" width="921.6" fill="#000000" y="-76.799999" height="921.599993" fill-opacity="1"/><g clip-path="url(#373530d1f6)"><path fill="#ffffff" d="M 252.054688 453.714844 L 240.914062 462.472656 C 212.75 484.621094 171.335938 475.296875 155.535156 443.136719 L 85.859375 301.433594 L 114.542969 301.433594 C 136.480469 301.433594 156.5 313.832031 166.109375 333.554688 L 212.054688 427.78125 C 215.398438 434.644531 220.296875 440.628906 226.433594 445.164062 C 232.605469 449.71875 241.058594 453.621094 251.722656 453.316406 C 249.253906 450.207031 247.074219 446.878906 245.242188 443.144531 L 175.5625 301.433594 L 204.246094 301.433594 C 226.183594 301.433594 246.203125 313.832031 255.8125 333.554688 L 301.757812 427.78125 C 305.101562 434.644531 309.996094 440.628906 316.136719 445.164062 C 322.472656 449.84375 331.226562 453.839844 342.3125 453.28125 L 330.609375 462.472656 C 305.871094 481.9375 270.890625 477.007812 252.054688 453.714844 Z M 310.902344 361.585938 L 342.34375 301.234375 L 263.792969 301.253906 L 294.113281 361.46875 C 297.570312 368.339844 307.351562 368.40625 310.902344 361.585938 Z M 310.902344 361.585938 " fill-opacity="1" fill-rule="nonzero"/></g><g fill="#ffffff" fill-opacity="1"><g transform="translate(317.530622, 420.339023)"><g><path d="M 64.5625 -28.96875 L 22.5625 -28.96875 C 23.039062 -23.28125 24.660156 -19.140625 27.421875 -16.546875 C 30.191406 -13.960938 33.960938 -12.671875 38.734375 -12.671875 C 42.484375 -12.671875 45.523438 -13.367188 47.859375 -14.765625 C 50.191406 -16.171875 52.066406 -18.296875 53.484375 -21.140625 L 54.734375 -21.140625 L 65.625 -14.15625 C 63.5 -9.570312 60.28125 -5.859375 55.96875 -3.015625 C 51.664062 -0.171875 45.921875 1.25 38.734375 1.25 C 31.984375 1.25 26.148438 -0.03125 21.234375 -2.59375 C 16.316406 -5.164062 12.523438 -8.988281 9.859375 -14.0625 C 7.191406 -19.144531 5.859375 -25.335938 5.859375 -32.640625 C 5.859375 -40.066406 7.257812 -46.328125 10.0625 -51.421875 C 12.875 -56.515625 16.664062 -60.3125 21.4375 -62.8125 C 26.21875 -65.320312 31.59375 -66.578125 37.5625 -66.578125 C 46.800781 -66.578125 53.878906 -64.128906 58.796875 -59.234375 C 63.710938 -54.335938 66.171875 -47.148438 66.171875 -37.671875 C 66.171875 -34.234375 66.050781 -31.566406 65.8125 -29.671875 Z M 50.46875 -39.5625 C 50.3125 -44.539062 49.15625 -48.164062 47 -50.4375 C 44.851562 -52.707031 41.707031 -53.84375 37.5625 -53.84375 C 29.257812 -53.84375 24.378906 -49.082031 22.921875 -39.5625 Z M 50.46875 -39.5625 "/></g></g></g><g fill="#ffffff" fill-opacity="1"><g transform="translate(388.546071, 420.339023)"><g><path d="M 45.671875 1.25 C 37.335938 1.25 31.132812 -1.867188 27.0625 -8.109375 L 25.828125 -7.875 L 25.828125 0 L 9.421875 0 L 9.421875 -91.578125 L 25.828125 -91.578125 L 25.828125 -57.640625 L 27.0625 -57.390625 C 29.320312 -60.515625 31.976562 -62.828125 35.03125 -64.328125 C 38.09375 -65.828125 41.757812 -66.578125 46.03125 -66.578125 C 51.320312 -66.578125 55.941406 -65.332031 59.890625 -62.84375 C 63.835938 -60.351562 66.914062 -56.570312 69.125 -51.5 C 71.332031 -46.425781 72.4375 -40.140625 72.4375 -32.640625 C 72.4375 -25.210938 71.289062 -18.960938 69 -13.890625 C 66.71875 -8.816406 63.5625 -5.023438 59.53125 -2.515625 C 55.5 -0.00390625 50.878906 1.25 45.671875 1.25 Z M 40.6875 -12.671875 C 45.507812 -12.671875 49.179688 -14.28125 51.703125 -17.5 C 54.234375 -20.71875 55.5 -25.765625 55.5 -32.640625 C 55.5 -39.546875 54.234375 -44.609375 51.703125 -47.828125 C 49.179688 -51.046875 45.507812 -52.65625 40.6875 -52.65625 C 36.070312 -52.65625 32.410156 -50.992188 29.703125 -47.671875 C 27.003906 -44.359375 25.65625 -39.347656 25.65625 -32.640625 C 25.65625 -25.921875 27.003906 -20.910156 29.703125 -17.609375 C 32.410156 -14.316406 36.070312 -12.671875 40.6875 -12.671875 Z M 40.6875 -12.671875 "/></g></g></g><g fill="#5a7bd1" fill-opacity="1"><g transform="translate(466.792337, 420.339023)"><g><path d="M 9.421875 0 L 9.421875 -65.328125 L 25.171875 -65.328125 L 25.171875 -55.734375 L 26.421875 -55.4375 C 30.484375 -62.863281 37.078125 -66.578125 46.203125 -66.578125 C 53.742188 -66.578125 59.28125 -64.523438 62.8125 -60.421875 C 66.351562 -56.316406 68.125 -50.332031 68.125 -42.46875 L 68.125 0 L 51.71875 0 L 51.71875 -40.453125 C 51.71875 -44.796875 50.847656 -47.925781 49.109375 -49.84375 C 47.367188 -51.757812 44.582031 -52.71875 40.75 -52.71875 C 36.050781 -52.71875 32.390625 -51.195312 29.765625 -48.15625 C 27.140625 -45.113281 25.828125 -40.335938 25.828125 -33.828125 L 25.828125 0 Z M 9.421875 0 "/></g></g></g><g fill="#5a7bd1" fill-opacity="1"><g transform="translate(543.316068, 420.339023)"><g><path d="M 17.59375 -73.15625 C 14.632812 -73.15625 12.222656 -74.050781 10.359375 -75.84375 C 8.503906 -77.644531 7.578125 -79.96875 7.578125 -82.8125 C 7.578125 -85.613281 8.503906 -87.910156 10.359375 -89.703125 C 12.222656 -91.503906 14.632812 -92.40625 17.59375 -92.40625 C 19.5625 -92.40625 21.316406 -91.988281 22.859375 -91.15625 C 24.398438 -90.332031 25.59375 -89.195312 26.4375 -87.75 C 27.289062 -86.3125 27.71875 -84.664062 27.71875 -82.8125 C 27.71875 -80.957031 27.289062 -79.296875 26.4375 -77.828125 C 25.59375 -76.367188 24.398438 -75.222656 22.859375 -74.390625 C 21.316406 -73.566406 19.5625 -73.15625 17.59375 -73.15625 Z M 9.421875 0 L 9.421875 -65.328125 L 25.828125 -65.328125 L 25.828125 0 Z M 9.421875 0 "/></g></g></g><g fill="#5a7bd1" fill-opacity="1"><g transform="translate(578.498031, 420.339023)"><g><path d="M 18.421875 0 L 1.125 0 L 19.78125 -33.875 L 2.125 -65.328125 L 19.671875 -65.328125 L 30.984375 -43.828125 L 32.34375 -43.828125 L 43.71875 -65.328125 L 60.71875 -65.328125 L 43.59375 -33.875 L 61.71875 0 L 44.25 0 L 31.921875 -23.875 L 30.5625 -23.875 Z M 18.421875 0 "/></g></g></g><g fill="#ffffff" fill-opacity="1"><g transform="translate(362.416919, 455.458557)"><g><path d="M 1.515625 0 L 1.515625 -17.828125 L 8.28125 -17.828125 C 9.988281 -17.828125 11.394531 -17.4375 12.5 -16.65625 C 13.613281 -15.875 14.4375 -14.8125 14.96875 -13.46875 C 15.507812 -12.125 15.78125 -10.585938 15.78125 -8.859375 C 15.78125 -7.128906 15.503906 -5.597656 14.953125 -4.265625 C 14.410156 -2.929688 13.582031 -1.882812 12.46875 -1.125 C 11.351562 -0.375 9.941406 0 8.234375 0 Z M 3.21875 -1.453125 L 8.03125 -1.453125 C 10.007812 -1.453125 11.507812 -2.109375 12.53125 -3.421875 C 13.550781 -4.742188 14.0625 -6.554688 14.0625 -8.859375 C 14.0625 -11.148438 13.570312 -12.976562 12.59375 -14.34375 C 11.613281 -15.707031 10.132812 -16.390625 8.15625 -16.390625 L 3.21875 -16.390625 Z M 3.21875 -1.453125 "/></g></g></g><g fill="#ffffff" fill-opacity="1"><g transform="translate(381.170683, 455.458557)"><g><path d="M 6.65625 0.296875 C 5.40625 0.296875 4.328125 0.0195312 3.421875 -0.53125 C 2.515625 -1.09375 1.816406 -1.867188 1.328125 -2.859375 C 0.835938 -3.859375 0.59375 -5.023438 0.59375 -6.359375 C 0.59375 -7.734375 0.84375 -8.921875 1.34375 -9.921875 C 1.84375 -10.921875 2.539062 -11.691406 3.4375 -12.234375 C 4.332031 -12.773438 5.378906 -13.046875 6.578125 -13.046875 C 7.878906 -13.046875 8.945312 -12.75 9.78125 -12.15625 C 10.625 -11.5625 11.25 -10.753906 11.65625 -9.734375 C 12.0625 -8.710938 12.265625 -7.535156 12.265625 -6.203125 L 2.140625 -6.203125 C 2.140625 -4.546875 2.554688 -3.25 3.390625 -2.3125 C 4.222656 -1.382812 5.304688 -0.921875 6.640625 -0.921875 C 7.503906 -0.921875 8.203125 -1.082031 8.734375 -1.40625 C 9.265625 -1.726562 9.675781 -2.117188 9.96875 -2.578125 C 10.257812 -3.035156 10.453125 -3.457031 10.546875 -3.84375 L 12.09375 -3.84375 C 11.8125 -2.644531 11.222656 -1.65625 10.328125 -0.875 C 9.429688 -0.09375 8.207031 0.296875 6.65625 0.296875 Z M 2.140625 -7.28125 L 10.71875 -7.28125 C 10.71875 -8.082031 10.566406 -8.832031 10.265625 -9.53125 C 9.972656 -10.226562 9.519531 -10.789062 8.90625 -11.21875 C 8.289062 -11.65625 7.515625 -11.875 6.578125 -11.875 C 5.671875 -11.875 4.882812 -11.664062 4.21875 -11.25 C 3.5625 -10.832031 3.054688 -10.273438 2.703125 -9.578125 C 2.347656 -8.878906 2.160156 -8.113281 2.140625 -7.28125 Z M 2.140625 -7.28125 "/></g></g></g><g fill="#ffffff" fill-opacity="1"><g transform="translate(396.133935, 455.458557)"><g><path d="M 6.140625 0.296875 C 4.859375 0.296875 3.800781 0.109375 2.96875 -0.265625 C 2.132812 -0.648438 1.515625 -1.175781 1.109375 -1.84375 C 0.703125 -2.507812 0.472656 -3.25 0.421875 -4.0625 L 1.921875 -4.0625 C 1.984375 -3.113281 2.363281 -2.34375 3.0625 -1.75 C 3.757812 -1.164062 4.765625 -0.875 6.078125 -0.875 C 7.015625 -0.875 7.796875 -1.097656 8.421875 -1.546875 C 9.054688 -1.992188 9.375 -2.566406 9.375 -3.265625 C 9.375 -3.960938 9.191406 -4.484375 8.828125 -4.828125 C 8.460938 -5.171875 7.96875 -5.429688 7.34375 -5.609375 C 6.71875 -5.796875 6.03125 -5.976562 5.28125 -6.15625 C 4.457031 -6.375 3.707031 -6.601562 3.03125 -6.84375 C 2.351562 -7.082031 1.816406 -7.414062 1.421875 -7.84375 C 1.023438 -8.28125 0.828125 -8.875 0.828125 -9.625 C 0.828125 -10.632812 1.238281 -11.457031 2.0625 -12.09375 C 2.894531 -12.726562 4.050781 -13.046875 5.53125 -13.046875 C 6.664062 -13.046875 7.582031 -12.859375 8.28125 -12.484375 C 8.976562 -12.117188 9.503906 -11.648438 9.859375 -11.078125 C 10.222656 -10.503906 10.4375 -9.90625 10.5 -9.28125 L 9 -9.28125 C 8.882812 -9.945312 8.5625 -10.546875 8.03125 -11.078125 C 7.5 -11.609375 6.675781 -11.875 5.5625 -11.875 C 5.03125 -11.875 4.519531 -11.796875 4.03125 -11.640625 C 3.539062 -11.492188 3.144531 -11.257812 2.84375 -10.9375 C 2.539062 -10.613281 2.390625 -10.203125 2.390625 -9.703125 C 2.390625 -9.203125 2.554688 -8.8125 2.890625 -8.53125 C 3.222656 -8.25 3.679688 -8.023438 4.265625 -7.859375 C 4.859375 -7.691406 5.53125 -7.515625 6.28125 -7.328125 C 7.175781 -7.109375 7.972656 -6.863281 8.671875 -6.59375 C 9.367188 -6.320312 9.914062 -5.941406 10.3125 -5.453125 C 10.71875 -4.972656 10.921875 -4.300781 10.921875 -3.4375 C 10.921875 -2.3125 10.492188 -1.40625 9.640625 -0.71875 C 8.785156 -0.0390625 7.617188 0.296875 6.140625 0.296875 Z M 6.140625 0.296875 "/></g></g></g><g fill="#ffffff" fill-opacity="1"><g transform="translate(409.725624, 455.458557)"><g><path d="M 2.21875 -15.484375 C 1.988281 -15.484375 1.769531 -15.5625 1.5625 -15.71875 C 1.351562 -15.875 1.25 -16.097656 1.25 -16.390625 C 1.25 -16.671875 1.351562 -16.890625 1.5625 -17.046875 C 1.769531 -17.203125 1.988281 -17.28125 2.21875 -17.28125 C 2.46875 -17.28125 2.691406 -17.203125 2.890625 -17.046875 C 3.085938 -16.890625 3.1875 -16.671875 3.1875 -16.390625 C 3.1875 -16.097656 3.085938 -15.875 2.890625 -15.71875 C 2.691406 -15.5625 2.46875 -15.484375 2.21875 -15.484375 Z M 1.453125 0 L 1.453125 -12.8125 L 3 -12.8125 L 3 0 Z M 1.453125 0 "/></g></g></g><g fill="#ffffff" fill-opacity="1"><g transform="translate(416.309856, 455.458557)"><g><path d="M 6.453125 4.3125 C 5.304688 4.3125 4.335938 4.128906 3.546875 3.765625 C 2.765625 3.410156 2.148438 2.945312 1.703125 2.375 C 1.265625 1.800781 1.003906 1.191406 0.921875 0.546875 L 2.46875 0.546875 C 2.601562 1.210938 2.976562 1.800781 3.59375 2.3125 C 4.21875 2.832031 5.164062 3.09375 6.4375 3.09375 C 7.71875 3.09375 8.71875 2.765625 9.4375 2.109375 C 10.164062 1.460938 10.53125 0.453125 10.53125 -0.921875 L 10.53125 -3.4375 L 10.46875 -3.4375 C 10.132812 -2.675781 9.570312 -2.03125 8.78125 -1.5 C 8 -0.96875 7.066406 -0.703125 5.984375 -0.703125 C 5.015625 -0.703125 4.117188 -0.929688 3.296875 -1.390625 C 2.472656 -1.859375 1.816406 -2.550781 1.328125 -3.46875 C 0.835938 -4.382812 0.59375 -5.515625 0.59375 -6.859375 C 0.59375 -8.222656 0.835938 -9.359375 1.328125 -10.265625 C 1.816406 -11.179688 2.472656 -11.875 3.296875 -12.34375 C 4.117188 -12.8125 5.015625 -13.046875 5.984375 -13.046875 C 7.066406 -13.046875 8 -12.78125 8.78125 -12.25 C 9.5625 -11.726562 10.125 -11.050781 10.46875 -10.21875 L 10.53125 -10.21875 L 10.53125 -12.8125 L 12.0625 -12.8125 L 12.0625 -0.84375 C 12.0625 0.96875 11.554688 2.28125 10.546875 3.09375 C 9.546875 3.90625 8.179688 4.3125 6.453125 4.3125 Z M 6.390625 -1.921875 C 7.085938 -1.921875 7.742188 -2.101562 8.359375 -2.46875 C 8.984375 -2.832031 9.492188 -3.378906 9.890625 -4.109375 C 10.296875 -4.847656 10.5 -5.765625 10.5 -6.859375 C 10.5 -7.972656 10.296875 -8.894531 9.890625 -9.625 C 9.492188 -10.351562 8.984375 -10.894531 8.359375 -11.25 C 7.742188 -11.613281 7.085938 -11.796875 6.390625 -11.796875 C 5.609375 -11.796875 4.890625 -11.613281 4.234375 -11.25 C 3.585938 -10.894531 3.078125 -10.351562 2.703125 -9.625 C 2.328125 -8.894531 2.140625 -7.972656 2.140625 -6.859375 C 2.140625 -5.765625 2.328125 -4.847656 2.703125 -4.109375 C 3.078125 -3.378906 3.585938 -2.832031 4.234375 -2.46875 C 4.890625 -2.101562 5.609375 -1.921875 6.390625 -1.921875 Z M 6.390625 -1.921875 "/></g></g></g><g fill="#ffffff" fill-opacity="1"><g transform="translate(431.771865, 455.458557)"><g><path d="M 1.25 0 L 1.25 -12.8125 L 2.796875 -12.8125 L 2.796875 -10.59375 L 2.84375 -10.59375 C 3.101562 -11.007812 3.425781 -11.398438 3.8125 -11.765625 C 4.207031 -12.128906 4.703125 -12.429688 5.296875 -12.671875 C 5.898438 -12.921875 6.632812 -13.046875 7.5 -13.046875 C 8.21875 -13.046875 8.867188 -12.894531 9.453125 -12.59375 C 10.046875 -12.289062 10.519531 -11.84375 10.875 -11.25 C 11.238281 -10.664062 11.421875 -9.929688 11.421875 -9.046875 L 11.421875 0 L 9.84375 0 L 9.84375 -8.359375 C 9.84375 -8.984375 9.753906 -9.550781 9.578125 -10.0625 C 9.410156 -10.582031 9.101562 -10.992188 8.65625 -11.296875 C 8.21875 -11.597656 7.59375 -11.75 6.78125 -11.75 C 5.945312 -11.75 5.226562 -11.578125 4.625 -11.234375 C 4.03125 -10.890625 3.578125 -10.46875 3.265625 -9.96875 C 2.953125 -9.476562 2.796875 -8.984375 2.796875 -8.484375 L 2.796875 0 Z M 1.25 0 "/></g></g></g><g fill="#ffffff" fill-opacity="1"><g transform="translate(446.485739, 455.458557)"><g><path d="M 6.65625 0.296875 C 5.40625 0.296875 4.328125 0.0195312 3.421875 -0.53125 C 2.515625 -1.09375 1.816406 -1.867188 1.328125 -2.859375 C 0.835938 -3.859375 0.59375 -5.023438 0.59375 -6.359375 C 0.59375 -7.734375 0.84375 -8.921875 1.34375 -9.921875 C 1.84375 -10.921875 2.539062 -11.691406 3.4375 -12.234375 C 4.332031 -12.773438 5.378906 -13.046875 6.578125 -13.046875 C 7.878906 -13.046875 8.945312 -12.75 9.78125 -12.15625 C 10.625 -11.5625 11.25 -10.753906 11.65625 -9.734375 C 12.0625 -8.710938 12.265625 -7.535156 12.265625 -6.203125 L 2.140625 -6.203125 C 2.140625 -4.546875 2.554688 -3.25 3.390625 -2.3125 C 4.222656 -1.382812 5.304688 -0.921875 6.640625 -0.921875 C 7.503906 -0.921875 8.203125 -1.082031 8.734375 -1.40625 C 9.265625 -1.726562 9.675781 -2.117188 9.96875 -2.578125 C 10.257812 -3.035156 10.453125 -3.457031 10.546875 -3.84375 L 12.09375 -3.84375 C 11.8125 -2.644531 11.222656 -1.65625 10.328125 -0.875 C 9.429688 -0.09375 8.207031 0.296875 6.65625 0.296875 Z M 2.140625 -7.28125 L 10.71875 -7.28125 C 10.71875 -8.082031 10.566406 -8.832031 10.265625 -9.53125 C 9.972656 -10.226562 9.519531 -10.789062 8.90625 -11.21875 C 8.289062 -11.65625 7.515625 -11.875 6.578125 -11.875 C 5.671875 -11.875 4.882812 -11.664062 4.21875 -11.25 C 3.5625 -10.832031 3.054688 -10.273438 2.703125 -9.578125 C 2.347656 -8.878906 2.160156 -8.113281 2.140625 -7.28125 Z M 2.140625 -7.28125 "/></g></g></g><g fill="#ffffff" fill-opacity="1"><g transform="translate(461.448991, 455.458557)"><g><path d="M 6.078125 0.296875 C 5.046875 0.296875 4.113281 0.03125 3.28125 -0.5 C 2.457031 -1.03125 1.800781 -1.789062 1.3125 -2.78125 C 0.832031 -3.769531 0.59375 -4.960938 0.59375 -6.359375 C 0.59375 -7.753906 0.832031 -8.953125 1.3125 -9.953125 C 1.800781 -10.953125 2.457031 -11.71875 3.28125 -12.25 C 4.113281 -12.78125 5.046875 -13.046875 6.078125 -13.046875 C 7.265625 -13.046875 8.234375 -12.738281 8.984375 -12.125 C 9.742188 -11.519531 10.289062 -10.800781 10.625 -9.96875 L 10.671875 -9.96875 L 10.671875 -17.828125 L 12.25 -17.828125 L 12.25 0 L 10.671875 0 L 10.671875 -2.71875 L 10.625 -2.71875 C 10.40625 -2.195312 10.085938 -1.707031 9.671875 -1.25 C 9.253906 -0.800781 8.742188 -0.429688 8.140625 -0.140625 C 7.546875 0.148438 6.859375 0.296875 6.078125 0.296875 Z M 6.484375 -0.921875 C 7.242188 -0.921875 7.9375 -1.132812 8.5625 -1.5625 C 9.1875 -2 9.6875 -2.625 10.0625 -3.4375 C 10.445312 -4.25 10.640625 -5.222656 10.640625 -6.359375 C 10.640625 -7.503906 10.445312 -8.476562 10.0625 -9.28125 C 9.6875 -10.09375 9.1875 -10.710938 8.5625 -11.140625 C 7.9375 -11.578125 7.242188 -11.796875 6.484375 -11.796875 C 5.222656 -11.796875 4.179688 -11.320312 3.359375 -10.375 C 2.546875 -9.425781 2.140625 -8.085938 2.140625 -6.359375 C 2.140625 -4.648438 2.546875 -3.316406 3.359375 -2.359375 C 4.179688 -1.398438 5.222656 -0.921875 6.484375 -0.921875 Z M 6.484375 -0.921875 "/></g></g></g><g fill="#ffffff" fill-opacity="1"><g transform="translate(477.06062, 455.458557)"><g/></g></g><g fill="#ffffff" fill-opacity="1"><g transform="translate(484.567544, 455.458557)"><g><path d="M 2.25 0 L 2.25 -11.578125 L 0.40625 -11.578125 L 0.40625 -12.8125 L 2.25 -12.8125 L 2.25 -14.4375 C 2.25 -15.738281 2.484375 -16.65625 2.953125 -17.1875 C 3.429688 -17.726562 4.144531 -18 5.09375 -18 C 5.519531 -18 5.96875 -17.953125 6.4375 -17.859375 L 6.4375 -16.609375 C 5.851562 -16.671875 5.363281 -16.671875 4.96875 -16.609375 C 4.582031 -16.554688 4.289062 -16.351562 4.09375 -16 C 3.90625 -15.644531 3.8125 -15.050781 3.8125 -14.21875 L 3.8125 -12.8125 L 6.4375 -12.8125 L 6.4375 -11.578125 L 3.8125 -11.578125 L 3.8125 0 Z M 2.25 0 "/></g></g></g><g fill="#ffffff" fill-opacity="1"><g transform="translate(492.996964, 455.458557)"><g><path d="M 6.6875 0.296875 C 5.414062 0.296875 4.328125 0.0195312 3.421875 -0.53125 C 2.515625 -1.09375 1.816406 -1.875 1.328125 -2.875 C 0.835938 -3.882812 0.59375 -5.046875 0.59375 -6.359375 C 0.59375 -7.691406 0.835938 -8.851562 1.328125 -9.84375 C 1.816406 -10.84375 2.515625 -11.625 3.421875 -12.1875 C 4.328125 -12.757812 5.414062 -13.046875 6.6875 -13.046875 C 7.945312 -13.046875 9.035156 -12.757812 9.953125 -12.1875 C 10.867188 -11.625 11.570312 -10.84375 12.0625 -9.84375 C 12.550781 -8.851562 12.796875 -7.691406 12.796875 -6.359375 C 12.796875 -5.046875 12.550781 -3.882812 12.0625 -2.875 C 11.570312 -1.875 10.867188 -1.09375 9.953125 -0.53125 C 9.035156 0.0195312 7.945312 0.296875 6.6875 0.296875 Z M 6.6875 -0.921875 C 8.132812 -0.921875 9.25 -1.421875 10.03125 -2.421875 C 10.820312 -3.429688 11.21875 -4.742188 11.21875 -6.359375 C 11.21875 -7.972656 10.820312 -9.28125 10.03125 -10.28125 C 9.25 -11.289062 8.132812 -11.796875 6.6875 -11.796875 C 5.238281 -11.796875 4.117188 -11.289062 3.328125 -10.28125 C 2.535156 -9.28125 2.140625 -7.972656 2.140625 -6.359375 C 2.140625 -4.742188 2.535156 -3.429688 3.328125 -2.421875 C 4.117188 -1.421875 5.238281 -0.921875 6.6875 -0.921875 Z M 6.6875 -0.921875 "/></g></g></g><g fill="#ffffff" fill-opacity="1"><g transform="translate(508.508845, 455.458557)"><g><path d="M 1.25 0 L 1.25 -12.8125 L 2.796875 -12.8125 L 2.796875 -10.21875 L 2.84375 -10.21875 C 3.125 -11.039062 3.597656 -11.707031 4.265625 -12.21875 C 4.929688 -12.738281 5.6875 -13 6.53125 -13 C 6.863281 -13 7.179688 -12.972656 7.484375 -12.921875 L 7.484375 -11.546875 L 7.4375 -11.546875 C 6.65625 -11.679688 5.910156 -11.59375 5.203125 -11.28125 C 4.492188 -10.976562 3.914062 -10.5 3.46875 -9.84375 C 3.019531 -9.1875 2.796875 -8.390625 2.796875 -7.453125 L 2.796875 0 Z M 1.25 0 "/></g></g></g><g fill="#ffffff" fill-opacity="1"><g transform="translate(518.534464, 455.458557)"><g/></g></g><g fill="#ffffff" fill-opacity="1"><g transform="translate(526.041388, 455.458557)"><g><path d="M 1.515625 0 L 1.515625 -17.828125 L 8.875 -17.828125 C 10.550781 -17.828125 11.851562 -17.441406 12.78125 -16.671875 C 13.707031 -15.910156 14.171875 -14.804688 14.171875 -13.359375 C 14.171875 -12.347656 13.910156 -11.519531 13.390625 -10.875 C 12.878906 -10.226562 12.171875 -9.753906 11.265625 -9.453125 L 11.265625 -9.40625 C 12.347656 -9.1875 13.226562 -8.707031 13.90625 -7.96875 C 14.59375 -7.226562 14.9375 -6.242188 14.9375 -5.015625 C 14.9375 -3.828125 14.691406 -2.863281 14.203125 -2.125 C 13.710938 -1.382812 13.035156 -0.84375 12.171875 -0.5 C 11.316406 -0.164062 10.335938 0 9.234375 0 Z M 3.234375 -9.921875 L 9.03125 -9.921875 C 10.039062 -9.921875 10.859375 -10.207031 11.484375 -10.78125 C 12.117188 -11.351562 12.4375 -12.128906 12.4375 -13.109375 C 12.4375 -14.140625 12.109375 -14.941406 11.453125 -15.515625 C 10.796875 -16.097656 9.851562 -16.390625 8.625 -16.390625 L 3.234375 -16.390625 Z M 3.234375 -1.453125 L 8.875 -1.453125 C 10.15625 -1.453125 11.195312 -1.726562 12 -2.28125 C 12.8125 -2.832031 13.21875 -3.789062 13.21875 -5.15625 C 13.21875 -6.289062 12.847656 -7.171875 12.109375 -7.796875 C 11.367188 -8.421875 10.375 -8.734375 9.125 -8.734375 L 3.234375 -8.734375 Z M 3.234375 -1.453125 "/></g></g></g><g fill="#ffffff" fill-opacity="1"><g transform="translate(543.747778, 455.458557)"><g><path d="M 5.0625 0.21875 C 4.363281 0.21875 3.71875 0.0703125 3.125 -0.21875 C 2.539062 -0.519531 2.0625 -0.96875 1.6875 -1.5625 C 1.320312 -2.164062 1.140625 -2.898438 1.140625 -3.765625 L 1.140625 -12.8125 L 2.71875 -12.8125 L 2.71875 -4.46875 C 2.71875 -3.832031 2.800781 -3.253906 2.96875 -2.734375 C 3.144531 -2.222656 3.453125 -1.816406 3.890625 -1.515625 C 4.335938 -1.222656 4.96875 -1.078125 5.78125 -1.078125 C 6.632812 -1.078125 7.351562 -1.242188 7.9375 -1.578125 C 8.53125 -1.921875 8.984375 -2.34375 9.296875 -2.84375 C 9.617188 -3.351562 9.78125 -3.851562 9.78125 -4.34375 L 9.78125 -12.8125 L 11.34375 -12.8125 L 11.34375 0 L 9.78125 0 L 9.78125 -2.1875 L 9.71875 -2.1875 C 9.46875 -1.789062 9.144531 -1.410156 8.75 -1.046875 C 8.351562 -0.679688 7.851562 -0.378906 7.25 -0.140625 C 6.65625 0.0976562 5.925781 0.21875 5.0625 0.21875 Z M 5.0625 0.21875 "/></g></g></g><g fill="#ffffff" fill-opacity="1"><g transform="translate(558.461663, 455.458557)"><g><path d="M 6.140625 0.296875 C 4.859375 0.296875 3.800781 0.109375 2.96875 -0.265625 C 2.132812 -0.648438 1.515625 -1.175781 1.109375 -1.84375 C 0.703125 -2.507812 0.472656 -3.25 0.421875 -4.0625 L 1.921875 -4.0625 C 1.984375 -3.113281 2.363281 -2.34375 3.0625 -1.75 C 3.757812 -1.164062 4.765625 -0.875 6.078125 -0.875 C 7.015625 -0.875 7.796875 -1.097656 8.421875 -1.546875 C 9.054688 -1.992188 9.375 -2.566406 9.375 -3.265625 C 9.375 -3.960938 9.191406 -4.484375 8.828125 -4.828125 C 8.460938 -5.171875 7.96875 -5.429688 7.34375 -5.609375 C 6.71875 -5.796875 6.03125 -5.976562 5.28125 -6.15625 C 4.457031 -6.375 3.707031 -6.601562 3.03125 -6.84375 C 2.351562 -7.082031 1.816406 -7.414062 1.421875 -7.84375 C 1.023438 -8.28125 0.828125 -8.875 0.828125 -9.625 C 0.828125 -10.632812 1.238281 -11.457031 2.0625 -12.09375 C 2.894531 -12.726562 4.050781 -13.046875 5.53125 -13.046875 C 6.664062 -13.046875 7.582031 -12.859375 8.28125 -12.484375 C 8.976562 -12.117188 9.503906 -11.648438 9.859375 -11.078125 C 10.222656 -10.503906 10.4375 -9.90625 10.5 -9.28125 L 9 -9.28125 C 8.882812 -9.945312 8.5625 -10.546875 8.03125 -11.078125 C 7.5 -11.609375 6.675781 -11.875 5.5625 -11.875 C 5.03125 -11.875 4.519531 -11.796875 4.03125 -11.640625 C 3.539062 -11.492188 3.144531 -11.257812 2.84375 -10.9375 C 2.539062 -10.613281 2.390625 -10.203125 2.390625 -9.703125 C 2.390625 -9.203125 2.554688 -8.8125 2.890625 -8.53125 C 3.222656 -8.25 3.679688 -8.023438 4.265625 -7.859375 C 4.859375 -7.691406 5.53125 -7.515625 6.28125 -7.328125 C 7.175781 -7.109375 7.972656 -6.863281 8.671875 -6.59375 C 9.367188 -6.320312 9.914062 -5.941406 10.3125 -5.453125 C 10.71875 -4.972656 10.921875 -4.300781 10.921875 -3.4375 C 10.921875 -2.3125 10.492188 -1.40625 9.640625 -0.71875 C 8.785156 -0.0390625 7.617188 0.296875 6.140625 0.296875 Z M 6.140625 0.296875 "/></g></g></g><g fill="#ffffff" fill-opacity="1"><g transform="translate(572.053352, 455.458557)"><g><path d="M 2.21875 -15.484375 C 1.988281 -15.484375 1.769531 -15.5625 1.5625 -15.71875 C 1.351562 -15.875 1.25 -16.097656 1.25 -16.390625 C 1.25 -16.671875 1.351562 -16.890625 1.5625 -17.046875 C 1.769531 -17.203125 1.988281 -17.28125 2.21875 -17.28125 C 2.46875 -17.28125 2.691406 -17.203125 2.890625 -17.046875 C 3.085938 -16.890625 3.1875 -16.671875 3.1875 -16.390625 C 3.1875 -16.097656 3.085938 -15.875 2.890625 -15.71875 C 2.691406 -15.5625 2.46875 -15.484375 2.21875 -15.484375 Z M 1.453125 0 L 1.453125 -12.8125 L 3 -12.8125 L 3 0 Z M 1.453125 0 "/></g></g></g><g fill="#ffffff" fill-opacity="1"><g transform="translate(578.637573, 455.458557)"><g><path d="M 1.25 0 L 1.25 -12.8125 L 2.796875 -12.8125 L 2.796875 -10.59375 L 2.84375 -10.59375 C 3.101562 -11.007812 3.425781 -11.398438 3.8125 -11.765625 C 4.207031 -12.128906 4.703125 -12.429688 5.296875 -12.671875 C 5.898438 -12.921875 6.632812 -13.046875 7.5 -13.046875 C 8.21875 -13.046875 8.867188 -12.894531 9.453125 -12.59375 C 10.046875 -12.289062 10.519531 -11.84375 10.875 -11.25 C 11.238281 -10.664062 11.421875 -9.929688 11.421875 -9.046875 L 11.421875 0 L 9.84375 0 L 9.84375 -8.359375 C 9.84375 -8.984375 9.753906 -9.550781 9.578125 -10.0625 C 9.410156 -10.582031 9.101562 -10.992188 8.65625 -11.296875 C 8.21875 -11.597656 7.59375 -11.75 6.78125 -11.75 C 5.945312 -11.75 5.226562 -11.578125 4.625 -11.234375 C 4.03125 -10.890625 3.578125 -10.46875 3.265625 -9.96875 C 2.953125 -9.476562 2.796875 -8.984375 2.796875 -8.484375 L 2.796875 0 Z M 1.25 0 "/></g></g></g><g fill="#ffffff" fill-opacity="1"><g transform="translate(593.351447, 455.458557)"><g><path d="M 6.65625 0.296875 C 5.40625 0.296875 4.328125 0.0195312 3.421875 -0.53125 C 2.515625 -1.09375 1.816406 -1.867188 1.328125 -2.859375 C 0.835938 -3.859375 0.59375 -5.023438 0.59375 -6.359375 C 0.59375 -7.734375 0.84375 -8.921875 1.34375 -9.921875 C 1.84375 -10.921875 2.539062 -11.691406 3.4375 -12.234375 C 4.332031 -12.773438 5.378906 -13.046875 6.578125 -13.046875 C 7.878906 -13.046875 8.945312 -12.75 9.78125 -12.15625 C 10.625 -11.5625 11.25 -10.753906 11.65625 -9.734375 C 12.0625 -8.710938 12.265625 -7.535156 12.265625 -6.203125 L 2.140625 -6.203125 C 2.140625 -4.546875 2.554688 -3.25 3.390625 -2.3125 C 4.222656 -1.382812 5.304688 -0.921875 6.640625 -0.921875 C 7.503906 -0.921875 8.203125 -1.082031 8.734375 -1.40625 C 9.265625 -1.726562 9.675781 -2.117188 9.96875 -2.578125 C 10.257812 -3.035156 10.453125 -3.457031 10.546875 -3.84375 L 12.09375 -3.84375 C 11.8125 -2.644531 11.222656 -1.65625 10.328125 -0.875 C 9.429688 -0.09375 8.207031 0.296875 6.65625 0.296875 Z M 2.140625 -7.28125 L 10.71875 -7.28125 C 10.71875 -8.082031 10.566406 -8.832031 10.265625 -9.53125 C 9.972656 -10.226562 9.519531 -10.789062 8.90625 -11.21875 C 8.289062 -11.65625 7.515625 -11.875 6.578125 -11.875 C 5.671875 -11.875 4.882812 -11.664062 4.21875 -11.25 C 3.5625 -10.832031 3.054688 -10.273438 2.703125 -9.578125 C 2.347656 -8.878906 2.160156 -8.113281 2.140625 -7.28125 Z M 2.140625 -7.28125 "/></g></g></g><g fill="#ffffff" fill-opacity="1"><g transform="translate(608.314688, 455.458557)"><g><path d="M 6.140625 0.296875 C 4.859375 0.296875 3.800781 0.109375 2.96875 -0.265625 C 2.132812 -0.648438 1.515625 -1.175781 1.109375 -1.84375 C 0.703125 -2.507812 0.472656 -3.25 0.421875 -4.0625 L 1.921875 -4.0625 C 1.984375 -3.113281 2.363281 -2.34375 3.0625 -1.75 C 3.757812 -1.164062 4.765625 -0.875 6.078125 -0.875 C 7.015625 -0.875 7.796875 -1.097656 8.421875 -1.546875 C 9.054688 -1.992188 9.375 -2.566406 9.375 -3.265625 C 9.375 -3.960938 9.191406 -4.484375 8.828125 -4.828125 C 8.460938 -5.171875 7.96875 -5.429688 7.34375 -5.609375 C 6.71875 -5.796875 6.03125 -5.976562 5.28125 -6.15625 C 4.457031 -6.375 3.707031 -6.601562 3.03125 -6.84375 C 2.351562 -7.082031 1.816406 -7.414062 1.421875 -7.84375 C 1.023438 -8.28125 0.828125 -8.875 0.828125 -9.625 C 0.828125 -10.632812 1.238281 -11.457031 2.0625 -12.09375 C 2.894531 -12.726562 4.050781 -13.046875 5.53125 -13.046875 C 6.664062 -13.046875 7.582031 -12.859375 8.28125 -12.484375 C 8.976562 -12.117188 9.503906 -11.648438 9.859375 -11.078125 C 10.222656 -10.503906 10.4375 -9.90625 10.5 -9.28125 L 9 -9.28125 C 8.882812 -9.945312 8.5625 -10.546875 8.03125 -11.078125 C 7.5 -11.609375 6.675781 -11.875 5.5625 -11.875 C 5.03125 -11.875 4.519531 -11.796875 4.03125 -11.640625 C 3.539062 -11.492188 3.144531 -11.257812 2.84375 -10.9375 C 2.539062 -10.613281 2.390625 -10.203125 2.390625 -9.703125 C 2.390625 -9.203125 2.554688 -8.8125 2.890625 -8.53125 C 3.222656 -8.25 3.679688 -8.023438 4.265625 -7.859375 C 4.859375 -7.691406 5.53125 -7.515625 6.28125 -7.328125 C 7.175781 -7.109375 7.972656 -6.863281 8.671875 -6.59375 C 9.367188 -6.320312 9.914062 -5.941406 10.3125 -5.453125 C 10.71875 -4.972656 10.921875 -4.300781 10.921875 -3.4375 C 10.921875 -2.3125 10.492188 -1.40625 9.640625 -0.71875 C 8.785156 -0.0390625 7.617188 0.296875 6.140625 0.296875 Z M 6.140625 0.296875 "/></g></g></g><g fill="#ffffff" fill-opacity="1"><g transform="translate(621.931326, 455.458557)"><g><path d="M 6.140625 0.296875 C 4.859375 0.296875 3.800781 0.109375 2.96875 -0.265625 C 2.132812 -0.648438 1.515625 -1.175781 1.109375 -1.84375 C 0.703125 -2.507812 0.472656 -3.25 0.421875 -4.0625 L 1.921875 -4.0625 C 1.984375 -3.113281 2.363281 -2.34375 3.0625 -1.75 C 3.757812 -1.164062 4.765625 -0.875 6.078125 -0.875 C 7.015625 -0.875 7.796875 -1.097656 8.421875 -1.546875 C 9.054688 -1.992188 9.375 -2.566406 9.375 -3.265625 C 9.375 -3.960938 9.191406 -4.484375 8.828125 -4.828125 C 8.460938 -5.171875 7.96875 -5.429688 7.34375 -5.609375 C 6.71875 -5.796875 6.03125 -5.976562 5.28125 -6.15625 C 4.457031 -6.375 3.707031 -6.601562 3.03125 -6.84375 C 2.351562 -7.082031 1.816406 -7.414062 1.421875 -7.84375 C 1.023438 -8.28125 0.828125 -8.875 0.828125 -9.625 C 0.828125 -10.632812 1.238281 -11.457031 2.0625 -12.09375 C 2.894531 -12.726562 4.050781 -13.046875 5.53125 -13.046875 C 6.664062 -13.046875 7.582031 -12.859375 8.28125 -12.484375 C 8.976562 -12.117188 9.503906 -11.648438 9.859375 -11.078125 C 10.222656 -10.503906 10.4375 -9.90625 10.5 -9.28125 L 9 -9.28125 C 8.882812 -9.945312 8.5625 -10.546875 8.03125 -11.078125 C 7.5 -11.609375 6.675781 -11.875 5.5625 -11.875 C 5.03125 -11.875 4.519531 -11.796875 4.03125 -11.640625 C 3.539062 -11.492188 3.144531 -11.257812 2.84375 -10.9375 C 2.539062 -10.613281 2.390625 -10.203125 2.390625 -9.703125 C 2.390625 -9.203125 2.554688 -8.8125 2.890625 -8.53125 C 3.222656 -8.25 3.679688 -8.023438 4.265625 -7.859375 C 4.859375 -7.691406 5.53125 -7.515625 6.28125 -7.328125 C 7.175781 -7.109375 7.972656 -6.863281 8.671875 -6.59375 C 9.367188 -6.320312 9.914062 -5.941406 10.3125 -5.453125 C 10.71875 -4.972656 10.921875 -4.300781 10.921875 -3.4375 C 10.921875 -2.3125 10.492188 -1.40625 9.640625 -0.71875 C 8.785156 -0.0390625 7.617188 0.296875 6.140625 0.296875 Z M 6.140625 0.296875 "/></g></g></g></svg>